<?xml version="1.0" standalone="no"?>
<!DOCTYPE svg PUBLIC "-//W3C//DTD SVG 20010904//EN"
 "http://www.w3.org/TR/2001/REC-SVG-20010904/DTD/svg10.dtd">
<svg version="1.0" xmlns="http://www.w3.org/2000/svg"
 width="317.000000pt" height="206.000000pt" viewBox="0 0 317.000000 206.000000"
 preserveAspectRatio="xMidYMid meet">

<g transform="translate(0.000000,206.000000) scale(0.100000,-0.100000)"
fill="#000000" stroke="none">
<path d="M870 1035 l0 -135 85 0 c69 0 85 3 85 15 0 12 -14 15 -65 15 l-65 0
0 45 0 45 60 0 c47 0 60 3 60 15 0 12 -13 15 -60 15 l-60 0 0 45 0 45 65 0
c51 0 65 3 65 15 0 12 -16 15 -85 15 l-85 0 0 -135z"/>
<path d="M1282 1049 c-24 -67 -46 -128 -49 -136 -4 -11 0 -14 18 -11 16 2 26
12 33 36 9 31 10 32 66 32 56 0 57 -1 66 -32 7 -23 17 -34 32 -36 21 -3 21 1
-23 123 -53 150 -50 145 -78 145 -19 0 -28 -16 -65 -121z m91 12 c9 -27 17
-51 17 -55 0 -3 -18 -6 -41 -6 -31 0 -40 3 -36 14 3 8 11 32 18 55 7 23 15 41
18 41 4 0 14 -22 24 -49z"/>
<path d="M1620 1155 c0 -12 15 -15 71 -15 57 0 70 -3 66 -14 -3 -8 -35 -57
-71 -109 -36 -52 -66 -100 -66 -106 0 -7 33 -11 100 -11 82 0 100 3 100 15 0
12 -15 15 -75 15 l-76 0 76 111 c41 61 75 115 75 120 0 5 -45 9 -100 9 -82 0
-100 -3 -100 -15z"/>
<path d="M2001 1148 c7 -13 30 -51 51 -86 31 -50 38 -72 38 -112 0 -43 3 -50
20 -50 18 0 20 7 20 55 0 47 6 65 45 128 25 41 45 77 45 81 0 3 -9 6 -20 6
-14 0 -30 -17 -51 -55 -17 -30 -35 -57 -39 -60 -5 -3 -24 22 -42 55 -25 46
-38 60 -56 60 -20 0 -22 -2 -11 -22z"/>
</g>
</svg>
